<svg xmlns="http://www.w3.org/2000/svg" xmlns:xlink="http://www.w3.org/1999/xlink" viewBox="0 0 666.13 579.57"><defs><style>.cls-1{fill:url(#linear-gradient);}.cls-2{fill:url(#linear-gradient-2);}</style><linearGradient id="linear-gradient" y1="289.78" x2="666.13" y2="289.78" gradientUnits="userSpaceOnUse"><stop offset="0" stop-color="#98c924"/><stop offset="0.07" stop-color="#8cc124"/><stop offset="0.37" stop-color="#5fa425"/><stop offset="0.63" stop-color="#3e8f26"/><stop offset="0.85" stop-color="#2a8226"/><stop offset="1" stop-color="#237d26"/></linearGradient><linearGradient id="linear-gradient-2" x1="401.74" y1="231.32" x2="429.09" y2="231.32" xlink:href="#linear-gradient"/></defs><g id="Layer_2" data-name="Layer 2"><g id="Layer_1-2" data-name="Layer 1"><path class="cls-1" d="M666.13,360.65C666.13,161.47,504.66,0,305.48,0H267.81V148.16L120,.35H13.43L194.31,181.24H0v37.68C0,418.1,161.47,579.57,360.65,579.57h37.67V431.4l146,146H650.84l-179-179H666.13ZM343.51,323v0H246.93a37.68,37.68,0,0,0,0,75.36h76V501.73C195.73,484.87,94.7,383.83,77.84,256.6H322.62v0H419.2a37.68,37.68,0,1,0,0-75.36h-76V77.84C470.4,94.7,571.43,195.73,588.29,323Zm42-105.32a29.87,29.87,0,1,1,29.87,29.87A29.87,29.87,0,0,1,385.54,217.65Z"/><path class="cls-2" d="M429.09,231.32A13.68,13.68,0,1,0,415.41,245,13.68,13.68,0,0,0,429.09,231.32Z"/></g></g></svg>